<?xml version="1.0" standalone="no"?>
<!DOCTYPE svg PUBLIC "-//W3C//DTD SVG 20010904//EN"
 "http://www.w3.org/TR/2001/REC-SVG-20010904/DTD/svg10.dtd">
<svg version="1.0" xmlns="http://www.w3.org/2000/svg"
 width="296.000000pt" height="274.000000pt" viewBox="0 0 296.000000 274.000000"
 preserveAspectRatio="xMidYMid meet">

<g transform="translate(0.000000,274.000000) scale(0.100000,-0.100000)"
fill="#000000" stroke="none">
<path d="M1348 2530 c-283 -59 -510 -193 -686 -406 -71 -85 -132 -174 -148
-216 -5 -15 0 -18 34 -18 39 0 42 3 85 68 119 177 258 300 442 392 166 83 272
110 455 117 162 6 249 -4 380 -43 338 -102 622 -375 733 -704 46 -136 60 -224
60 -375 0 -149 -13 -227 -58 -361 -116 -345 -415 -625 -768 -719 -457 -122
-924 43 -1211 428 -25 33 -33 37 -72 37 l-45 0 15 -27 c29 -56 155 -200 234
-269 137 -118 293 -200 479 -252 92 -25 110 -27 303 -27 194 0 210 2 305 28
459 128 792 487 880 948 20 106 20 331 0 436 -28 147 -88 303 -161 416 -193
299 -468 486 -813 551 -115 22 -330 20 -443 -4z"/>
<path d="M1375 1324 c-105 -273 -192 -500 -193 -505 -3 -6 32 -9 88 -7 l92 3
25 63 25 62 157 0 158 0 24 -62 25 -63 87 -3 c68 -2 87 0 87 11 0 16 -368 979
-378 989 -4 4 -93 -216 -197 -488z m244 -112 c23 -56 41 -107 41 -112 0 -6
-38 -10 -90 -10 -55 0 -90 4 -90 10 0 23 85 229 92 222 3 -4 25 -53 47 -110z"/>
<path d="M260 1311 l0 -501 85 0 85 0 0 285 c0 157 3 285 6 285 5 0 415 -383
567 -529 l57 -55 0 502 0 502 -90 0 -90 0 0 -291 0 -291 -191 183 c-104 101
-244 235 -310 297 l-119 114 0 -501z"/>
</g>
</svg>
